nColumns=19
nRows=71
DataType=double
version=3
OpenSimVersion=4.1
endheader
time	ground_force_calcn_r_vx	ground_force_calcn_r_vy	ground_force_calcn_r_vz	ground_force_calcn_r_px	ground_force_calcn_r_py	ground_force_calcn_r_pz	ground_force_calcn_r_mx	ground_force_calcn_r_my	ground_force_calcn_r_mz	ground_force_calcn_l_vx	ground_force_calcn_l_vy	ground_force_calcn_l_vz	ground_force_calcn_l_px	ground_force_calcn_l_py	ground_force_calcn_l_pz	ground_force_calcn_l_mx	ground_force_calcn_l_my	ground_force_calcn_l_mz
2.96	10.9388	361.1	-55.066	-0.278168	0	-0.432259	-0.0039152	-0.129245	0.0197092	-7.10209	336.544	60.5947	-0.212505	0	-0.844765	-0.0210049	0.995352	0.179213
2.97	10.7299	363.981	-55.5928	-0.277618	0	-0.43225	-0.0060681	-0.205842	0.0314394	-6.95531	337.578	61.1672	-0.211969	0	-0.844824	-0.0212556	1.03165	0.186928
2.98	10.4671	366.362	-56.101	-0.277036	0	-0.432194	-0.00832322	-0.291324	0.0446105	-6.86339	338.22	61.64	-0.211435	0	-0.844867	-0.0217469	1.07166	0.195308
2.99	10.1509	368.278	-56.5865	-0.276426	0	-0.432094	-0.0106347	-0.38583	0.0592834	-6.83709	338.545	62.0205	-0.210905	0	-0.844894	-0.0225408	1.11613	0.204472
3	9.78392	369.787	-57.0457	-0.275796	0	-0.431953	-0.0129428	-0.489177	0.0754636	-6.87963	338.626	62.3121	-0.210385	0	-0.844903	-0.0236838	1.16575	0.214515
3.01	9.37259	370.964	-57.4774	-0.275151	0	-0.431778	-0.015182	-0.600898	0.0931036	-6.98633	338.528	62.5139	-0.209881	0	-0.844893	-0.025198	1.22099	0.225473
3.02	8.92744	371.898	-57.8836	-0.274497	0	-0.431573	-0.0172901	-0.720269	0.112105	-7.14586	338.306	62.6226	-0.209403	0	-0.844862	-0.0270793	1.28201	0.237309
3.03	8.46272	372.682	-58.2673	-0.273841	0	-0.43134	-0.0192157	-0.846223	0.132304	-7.34298	338.003	62.6348	-0.208952	0	-0.844808	-0.0293006	1.34873	0.24993
3.04	7.9943	373.395	-58.6315	-0.273186	0	-0.431087	-0.0209222	-0.977226	0.153446	-7.56168	337.653	62.5486	-0.208535	0	-0.844729	-0.0318141	1.4206	0.263159
3.05	7.53689	374.097	-58.977	-0.272537	0	-0.430814	-0.0223884	-1.11126	0.175192	-7.78779	337.273	62.3653	-0.208149	0	-0.844629	-0.034558	1.49664	0.276743
3.06	7.10429	374.824	-59.3024	-0.271896	0	-0.430525	-0.0236159	-1.24598	0.197132	-8.01053	336.873	62.0891	-0.207792	0	-0.844509	-0.0374657	1.57557	0.290394
3.07	6.70945	375.605	-59.604	-0.271261	0	-0.430221	-0.0246308	-1.37887	0.218809	-8.22279	336.456	61.7276	-0.207461	0	-0.844372	-0.0404719	1.65601	0.303818
3.08	6.36213	376.47	-59.8768	-0.270634	0	-0.429909	-0.0254731	-1.50733	0.239738	-8.41983	336.034	61.29	-0.207153	0	-0.844222	-0.0435121	1.73656	0.316735
3.09	6.06841	377.468	-60.1168	-0.270017	0	-0.429593	-0.0261887	-1.62899	0.259439	-8.59761	335.631	60.7858	-0.206867	0	-0.844058	-0.0465194	1.81601	0.328895
3.1	5.83225	378.669	-60.3234	-0.26941	0	-0.429279	-0.0268284	-1.74188	0.277488	-8.75152	335.294	60.2242	-0.206605	0	-0.843882	-0.0494181	1.89334	0.340074
3.11	5.65618	380.174	-60.5005	-0.268816	0	-0.428975	-0.0274437	-1.8446	0.293548	-8.87614	335.084	59.6139	-0.20637	0	-0.843694	-0.0521254	1.96779	0.350084
3.12	5.54176	382.101	-60.6565	-0.268245	0	-0.428689	-0.028086	-1.93651	0.307411	-8.96632	335.082	58.9625	-0.20617	0	-0.843492	-0.0545615	2.03903	0.358797
3.13	5.49031	384.568	-60.8009	-0.267703	0	-0.428428	-0.0288047	-2.01762	0.318989	-9.01805	335.377	58.2767	-0.206019	0	-0.843272	-0.0566613	2.10721	0.366159
3.14	5.50341	387.671	-60.941	-0.267207	0	-0.428202	-0.0296475	-2.08843	0.328296	-9.0285	336.061	57.5612	-0.20593	0	-0.843029	-0.0583803	2.17305	0.372203
3.15	5.58251	391.474	-61.0799	-0.266768	0	-0.428018	-0.0306578	-2.14988	0.335436	-8.99436	337.221	56.8185	-0.205921	0	-0.842763	-0.0596832	2.23767	0.377027
3.16	5.72838	395.999	-61.2156	-0.266398	0	-0.427882	-0.0318702	-2.20317	0.340578	-8.9107	338.921	56.0495	-0.206004	0	-0.84247	-0.0605296	2.30226	0.380739
3.17	5.94091	401.226	-61.3409	-0.266101	0	-0.427795	-0.0333103	-2.24965	0.343935	-8.77185	341.197	55.2543	-0.206188	0	-0.842149	-0.060869	2.36761	0.383417
3.18	6.21797	407.091	-61.4438	-0.265879	0	-0.427758	-0.0349883	-2.29069	0.345742	-8.5737	344.045	54.435	-0.206476	0	-0.841805	-0.0606528	2.43387	0.385089
3.19	6.554	413.486	-61.5105	-0.265726	0	-0.427769	-0.0368922	-2.3275	0.34624	-8.31516	347.423	53.596	-0.206859	0	-0.841442	-0.0598513	2.5007	0.385776
3.2	6.94027	420.263	-61.5265	-0.265635	0	-0.427818	-0.0389897	-2.361	0.345649	-7.99739	351.253	52.7451	-0.20732	0	-0.84107	-0.0584561	2.56745	0.385534
3.21	7.36798	427.233	-61.4782	-0.265592	0	-0.427901	-0.0412455	-2.39162	0.344152	-7.6225	355.416	51.8918	-0.20784	0	-0.840703	-0.056474	2.63322	0.384459
3.22	7.82989	434.164	-61.3541	-0.265585	0	-0.428007	-0.0436309	-2.41931	0.341886	-7.19437	359.754	51.0463	-0.20839	0	-0.840353	-0.0539351	2.69702	0.382687
3.23	8.31808	440.794	-61.1445	-0.265595	0	-0.428123	-0.046108	-2.44337	0.33893	-6.72082	364.078	50.2195	-0.20894	0	-0.840033	-0.0509088	2.75782	0.380402
3.24	8.82201	446.844	-60.8412	-0.265609	0	-0.428242	-0.0486199	-2.46265	0.335309	-6.21467	368.184	49.4217	-0.209459	0	-0.839757	-0.0475094	2.81466	0.377815
3.25	9.3269	452.046	-60.4372	-0.26561	0	-0.428353	-0.0510849	-2.47593	0.331024	-5.69394	371.863	48.6622	-0.209919	0	-0.839534	-0.0438937	2.86664	0.37513
3.26	9.81155	456.166	-59.9268	-0.265585	0	-0.428453	-0.0533863	-2.48207	0.326072	-5.1815	374.922	47.9487	-0.210293	0	-0.839374	-0.0402575	2.91294	0.372536
3.27	10.2484	459.014	-59.3074	-0.265523	0	-0.428537	-0.0553728	-2.48008	0.320441	-4.70386	377.198	47.2859	-0.21056	0	-0.839281	-0.0368252	2.95298	0.370188
3.28	10.6061	460.463	-58.58	-0.265413	0	-0.428602	-0.0568707	-2.46904	0.314111	-4.2885	378.565	46.6755	-0.210704	0	-0.839257	-0.0338295	2.98628	0.368196
3.29	10.8525	460.446	-57.7496	-0.265249	0	-0.428648	-0.0577039	-2.44824	0.307061	-3.96114	378.939	46.1163	-0.210714	0	-0.839303	-0.0314901	3.01247	0.366613
3.3	10.9605	458.964	-56.8235	-0.265024	0	-0.428675	-0.0577298	-2.4174	0.299294	-3.74331	378.289	45.6045	-0.210584	0	-0.839417	-0.0299969	3.03141	0.36545
3.31	10.911	456.076	-55.8098	-0.264741	0	-0.428685	-0.0568621	-2.37682	0.29085	-3.65087	376.628	45.1342	-0.210313	0	-0.839591	-0.0294994	3.04319	0.364689
3.32	10.6935	451.891	-54.7173	-0.264404	0	-0.428685	-0.0550713	-2.32723	0.281793	-3.69294	374.014	44.6973	-0.209912	0	-0.839819	-0.0300974	3.04821	0.364283
3.33	10.3063	446.547	-53.5553	-0.264019	0	-0.42868	-0.0523827	-2.26961	0.272199	-3.8718	370.537	44.2846	-0.209391	0	-0.840087	-0.0318384	3.04699	0.36416
3.34	9.75662	440.204	-52.3339	-0.263598	0	-0.428676	-0.0488737	-2.20511	0.262156	-4.18379	366.314	43.8868	-0.208769	0	-0.840385	-0.0347213	3.04004	0.364217
3.35	9.06026	433.031	-51.0646	-0.263153	0	-0.428681	-0.0446704	-2.135	0.251767	-4.62025	361.483	43.496	-0.208062	0	-0.840698	-0.0387007	3.02789	0.364336
3.36	8.24185	425.201	-49.759	-0.262699	0	-0.4287	-0.0399436	-2.06071	0.241154	-5.16868	356.195	43.1057	-0.207294	0	-0.841014	-0.0436933	3.01109	0.364393
3.37	7.33209	416.887	-48.4291	-0.262255	0	-0.428742	-0.0348897	-1.98376	0.23045	-5.81292	350.6	42.7102	-0.206485	0	-0.841316	-0.0495761	2.99013	0.364259
3.38	6.36473	408.255	-47.0874	-0.261837	0	-0.428815	-0.029709	-1.90563	0.219792	-6.53328	344.846	42.3052	-0.205661	0	-0.841593	-0.0561827	2.96549	0.363802
3.39	5.3746	399.461	-45.7476	-0.261463	0	-0.428923	-0.0245911	-1.8277	0.209315	-7.30707	339.067	41.8873	-0.204844	0	-0.841831	-0.0633036	2.93745	0.362884
3.4	4.39576	390.645	-44.4234	-0.261149	0	-0.429074	-0.0197051	-1.75116	0.199139	-8.1095	333.382	41.4546	-0.204057	0	-0.842022	-0.0706933	2.90621	0.361374
3.41	3.45975	381.934	-43.1284	-0.26091	0	-0.429268	-0.0151916	-1.67706	0.189375	-8.91465	327.89	41.0065	-0.203321	0	-0.842159	-0.0780836	2.872	0.359177
3.42	2.59411	373.436	-41.8759	-0.260759	0	-0.429507	-0.0111583	-1.60629	0.180124	-9.69655	322.673	40.5445	-0.202658	0	-0.842234	-0.0851976	2.83513	0.35624
3.43	1.82151	365.24	-40.6782	-0.260702	0	-0.429786	-0.00767845	-1.53964	0.171476	-10.4306	317.797	40.073	-0.202083	0	-0.842247	-0.0917665	2.79592	0.352555
3.44	1.15952	357.418	-39.5457	-0.26075	0	-0.430101	-0.0047941	-1.47776	0.163504	-11.0953	313.319	39.5994	-0.201617	0	-0.842198	-0.097558	2.75494	0.348187
3.45	0.62158	350.026	-38.4869	-0.260906	0	-0.430443	-0.0025238	-1.42121	0.156268	-11.6735	309.283	39.1341	-0.201269	0	-0.84209	-0.102392	2.71282	0.343258
3.46	0.21737	343.112	-37.5082	-0.261175	0	-0.43081	-0.000868281	-1.37056	0.149826	-12.1525	305.721	38.69	-0.201055	0	-0.841929	-0.10615	2.67041	0.337949
3.47	-0.0471544	336.717	-36.615	-0.26156	0	-0.431192	0.000185762	-1.32648	0.144243	-12.5243	302.657	38.2814	-0.200978	0	-0.841721	-0.108777	2.62865	0.332485
3.48	-0.170358	330.876	-35.8122	-0.26206	0	-0.431586	0.000664024	-1.28969	0.139589	-12.7849	300.098	37.923	-0.201047	0	-0.841479	-0.110281	2.58861	0.327119
3.49	-0.155332	325.619	-35.1041	-0.262672	0	-0.431982	0.000601517	-1.26095	0.135939	-12.935	298.043	37.6281	-0.20126	0	-0.841209	-0.110726	2.5513	0.322103
3.5	-0.00977486	320.967	-34.4943	-0.263386	0	-0.432377	3.77922e-05	-1.24094	0.133364	-12.9787	296.475	37.4075	-0.201615	0	-0.840924	-0.110213	2.51762	0.317658
3.51	0.254667	316.927	-33.9848	-0.264191	0	-0.432762	-0.00098866	-1.23037	0.131935	-12.923	295.371	37.2685	-0.202101	0	-0.840631	-0.108864	2.48824	0.313954
3.52	0.62334	313.5	-33.5752	-0.265073	0	-0.433128	-0.00244529	-1.22982	0.131712	-12.7766	294.698	37.2146	-0.20271	0	-0.84034	-0.106814	2.4637	0.311118
3.53	1.07953	310.67	-33.2627	-0.266016	0	-0.43347	-0.0043076	-1.23965	0.132727	-12.5498	294.417	37.2457	-0.203421	0	-0.840059	-0.104196	2.44442	0.309235
3.54	1.60546	308.412	-33.043	-0.267001	0	-0.433783	-0.00655787	-1.25979	0.134972	-12.2543	294.483	37.3588	-0.204217	0	-0.839795	-0.101145	2.43062	0.308354
3.55	2.18365	306.69	-32.9096	-0.268009	0	-0.434064	-0.00918356	-1.28982	0.138405	-11.9047	294.852	37.5488	-0.205078	0	-0.839553	-0.0978051	2.42241	0.30849
3.56	2.7969	305.461	-32.854	-0.269021	0	-0.434311	-0.012168	-1.32892	0.142932	-11.5178	295.475	37.8088	-0.205978	0	-0.839339	-0.0943243	2.41977	0.309632
3.57	3.42747	304.679	-32.8666	-0.270016	0	-0.434522	-0.0154777	-1.37586	0.148418	-11.1119	296.31	38.131	-0.206897	0	-0.839157	-0.090847	2.42252	0.311745
3.58	4.05803	304.3	-32.9374	-0.270977	0	-0.434698	-0.0190591	-1.42919	0.154695	-10.7044	297.32	38.5063	-0.207815	0	-0.83901	-0.0874972	2.43026	0.314747
3.59	4.6731	304.283	-33.057	-0.271891	0	-0.434842	-0.0228423	-1.48735	0.161584	-10.3111	298.477	38.9244	-0.208711	0	-0.838899	-0.0843749	2.44241	0.318515
3.6	5.25957	304.599	-33.2176	-0.272745	0	-0.434954	-0.026742	-1.54872	0.168894	-9.94483	299.762	39.374	-0.209573	0	-0.838823	-0.0815546	2.45826	0.322895
3.61	5.80733	305.233	-33.4142	-0.273532	0	-0.435039	-0.0306659	-1.6118	0.176446	-9.6144	301.159	39.8447	-0.210391	0	-0.838781	-0.0790798	2.47708	0.327729
3.62	6.30932	306.183	-33.6435	-0.27425	0	-0.435099	-0.0345213	-1.67527	0.18408	-9.32416	302.657	40.3271	-0.211157	0	-0.838769	-0.0769601	2.49808	0.332853
3.63	6.76127	307.458	-33.9044	-0.274895	0	-0.435142	-0.0382193	-1.73796	0.191651	-9.0737	304.25	40.8133	-0.211869	0	-0.838781	-0.0751687	2.52048	0.338107
3.64	7.16178	309.075	-34.1983	-0.27547	0	-0.435167	-0.041681	-1.79879	0.199031	-8.85789	305.936	41.2971	-0.212531	0	-0.838812	-0.0736423	2.54348	0.343334
3.65	7.51185	311.057	-34.5288	-0.275976	0	-0.435178	-0.0448408	-1.8568	0.206114	-8.66848	307.718	41.7744	-0.213146	0	-0.838854	-0.0722928	2.56629	0.348388
3.66	7.81443	313.428	-34.9018	-0.276415	0	-0.435178	-0.0476488	-1.91114	0.212815	-8.49584	309.603	42.2448	-0.213722	0	-0.838901	-0.07102	2.58809	0.353141
